<?xml version="1.0" encoding="UTF-8"?>
<svg id="Capa_1" data-name="Capa 1" xmlns="http://www.w3.org/2000/svg" viewBox="0 0 503.16 123.13">
  <defs>
    <style>
      .cls-1, .cls-2, .cls-3 {
        fill: #ff5aa9;
      }

      .cls-1, .cls-4 {
        stroke-width: 0px;
      }

      .cls-2 {
        stroke-width: .5px;
      }

      .cls-2, .cls-3 {
        stroke: #ff5aa9;
        stroke-miterlimit: 10;
      }

      .cls-4 {
        fill: #fff;
      }
    </style>
  </defs>
  <g>
    <path class="cls-2" d="M.63,85.22s-.06,0-.09-.01c-.17-.04-.29-.2-.29-.37v-42.1c0-.13.07-.26.18-.33L68.36.31c.12-.07.27-.08.39,0,.12.07.2.2.2.33v42.05c0,.13-.07.26-.18.33l-.04.03-27.21,16.87c-.12.08-.28.08-.4,0l-8.09-5.01c-.11-.07-.18-.19-.18-.33s.07-.26.18-.33l27.2-16.93v-21.09L8.98,48.11v21.83c0,.06-.02.12-.05.18l-7.96,14.9c-.07.13-.2.2-.34.2ZM1.02,42.95v40.36l7.19-13.46v-21.95c0-.13.07-.26.18-.33L60.4,15.2c.12-.07.27-.08.39,0,.12.07.2.2.2.33v21.99c0,.13-.07.26-.18.33l-26.86,16.72,7.36,4.56,26.87-16.66V1.32L1.02,42.95ZM68.56,42.68h0,0Z"/>
    <polygon class="cls-3" points="47.16 80.91 .63 51.75 .71 86.06 47.71 122.11 47.16 80.91"/>
  </g>
  <g>
    <path class="cls-4" d="M129.14,90.15h-5.34l-5.47-13.82h-24.03l-5.47,13.82h-5.41l17.83-46.73h10.15l17.76,46.73ZM96.1,71.13h20.5l-9.81-26.44h-.93l-9.75,26.44Z"/>
    <path class="cls-4" d="M137.62,48.63h-1.4c-.71,0-1.32-.24-1.84-.73-.51-.49-.77-1.11-.77-1.87v-1.34c0-.76.26-1.38.77-1.87.51-.49,1.12-.73,1.84-.73h1.4c.71,0,1.32.24,1.84.73.51.49.77,1.11.77,1.87v1.34c0,.76-.26,1.38-.77,1.87-.51.49-1.12.73-1.84.73ZM139.62,90.15h-5.47v-36.05h5.47v36.05Z"/>
    <path class="cls-4" d="M154.31,90.15h-5.54v-36.05h5.54l-.53,8.75.4.93c.18-1.65.62-3.12,1.34-4.41.71-1.29,1.71-2.4,3-3.34,1.29-.93,2.8-1.65,4.54-2.14,1.74-.49,3.67-.73,5.81-.73.71-.04,1.49-.04,2.34,0,.84.05,1.68.16,2.5.33.82.18,1.65.46,2.47.83.82.38,1.57.88,2.24,1.5.76.71,1.35,1.48,1.77,2.3.42.82.72,1.61.9,2.37.27.8.4,1.62.4,2.47l.47.87c.09-1.69.54-3.2,1.37-4.54.82-1.34,1.88-2.46,3.17-3.37,1.29-.91,2.8-1.61,4.54-2.1,1.74-.49,3.61-.73,5.61-.73,1.16,0,2.49.12,4,.37,1.51.24,2.97.78,4.37,1.6,1.4.82,2.58,2.01,3.54,3.57.96,1.56,1.44,3.65,1.44,6.28v25.24h-5.61v-24.7c-.09-2.89-.94-4.92-2.54-6.08-1.6-1.16-3.83-1.74-6.68-1.74s-5.11.4-6.78,1.2c-1.67.8-2.96,1.75-3.87,2.84-.91,1.09-1.51,2.2-1.8,3.34-.29,1.13-.46,2.04-.5,2.7v22.43h-5.61v-24.7c-.04-1.42-.28-2.65-.7-3.67-.42-1.02-1.01-1.83-1.77-2.4-.76-.58-1.65-1-2.67-1.27-1.02-.27-2.2-.4-3.54-.4-3.07,0-5.5.45-7.28,1.34-1.78.89-3.14,1.91-4.07,3.07-.93,1.16-1.54,2.31-1.8,3.47-.27,1.16-.4,2-.4,2.54v.47-.33.33l-.07,21.56Z"/>
    <path class="cls-4" d="M243.44,54.33c2.31.82,4.25,1.97,5.81,3.44,1.56,1.47,2.73,3.19,3.51,5.17.78,1.98,1.17,4.17,1.17,6.58v4.54c0,2.4-.41,4.64-1.24,6.71-.82,2.07-2.03,3.87-3.6,5.41-1.58,1.54-3.52,2.75-5.81,3.64-2.29.89-4.95,1.34-7.98,1.34s-5.78-.45-8.11-1.34c-2.34-.89-4.27-2.1-5.81-3.64-1.54-1.54-2.69-3.34-3.47-5.41-.78-2.07-1.17-4.31-1.17-6.71v-4.54c0-2.4.37-4.6,1.1-6.58.73-1.98,1.87-3.71,3.41-5.17,1.54-1.47,3.47-2.61,5.81-3.44,2.34-.82,5.08-1.24,8.25-1.24s5.83.41,8.14,1.24ZM223.17,79.44c.6,1.54,1.47,2.83,2.6,3.87,1.13,1.05,2.5,1.81,4.11,2.3,1.6.49,3.41.73,5.41.73s3.67-.26,5.27-.77c1.6-.51,2.97-1.27,4.11-2.27,1.13-1,2.02-2.28,2.67-3.84.64-1.56.97-3.36.97-5.41v-4.54c0-1.82-.3-3.47-.9-4.94-.6-1.47-1.46-2.73-2.57-3.77-1.11-1.05-2.47-1.86-4.07-2.44-1.6-.58-3.43-.87-5.47-.87s-3.95.29-5.57.87c-1.63.58-2.98,1.39-4.07,2.44-1.09,1.05-1.93,2.3-2.5,3.77-.58,1.47-.87,3.12-.87,4.94v4.54c0,2.05.3,3.84.9,5.37Z"/>
    <path class="cls-4" d="M291.7,63.18l-.07.93h-5.41v-.73c-.05-2.49-1.31-4.05-3.81-4.67-2.49-.62-4.45-.93-5.88-.93h-1.27c-1.69,0-3.68.42-5.98,1.27-2.29.85-3.44,2.29-3.44,4.34v.87c0,2.14.96,3.59,2.87,4.37,1.91.78,4.61,1.28,8.08,1.5,4.49.27,8.3.99,11.42,2.17,3.12,1.18,4.67,3.73,4.67,7.64v1.2c0,3.29-1.49,5.79-4.47,7.48-2.98,1.69-6.81,2.54-11.48,2.54h-1.27c-5.65,0-9.7-1.02-12.15-3.07-2.45-2.05-3.67-4.3-3.67-6.74v-1.13h5.41v.27c0,2.45,1.16,4.08,3.47,4.91,2.31.82,4.67,1.24,7.08,1.24h1.27c3.25,0,5.81-.51,7.68-1.54,1.87-1.02,2.8-2.27,2.8-3.74v-1c0-2.05-.96-3.49-2.87-4.34-1.91-.85-4.83-1.34-8.75-1.47-3.29-.09-6.71-.76-10.25-2-3.54-1.25-5.22-4.05-5.04-8.41v-1.07c.09-3.29,1.6-5.78,4.54-7.44,2.94-1.67,6.23-2.5,9.88-2.5h1.27c4.27,0,7.9.78,10.88,2.34,2.98,1.56,4.47,4.14,4.47,7.74Z"/>
    <path class="cls-4" d="M300.25,102.84v-48.74h5.54l-.67,9.21.53.94c.09-1.87.64-3.49,1.67-4.87,1.02-1.38,2.31-2.54,3.87-3.47,1.56-.93,3.29-1.64,5.21-2.1,1.91-.47,3.87-.7,5.88-.7,1.82,0,3.64.29,5.44.87,1.8.58,3.41,1.48,4.84,2.7,1.42,1.23,2.58,2.79,3.47,4.71.89,1.91,1.34,4.18,1.34,6.81v7.88c0,2.63-.45,4.9-1.34,6.81-.89,1.91-2.05,3.48-3.47,4.71-1.42,1.22-3.04,2.13-4.84,2.7-1.8.58-3.62.87-5.44.87-2.63,0-4.94-.31-6.94-.93-2-.62-3.68-1.46-5.04-2.5-1.36-1.05-2.45-2.21-3.27-3.5-.82-1.29-1.35-2.6-1.57-3.94l-.4.87.73,21.7h-5.54ZM321.48,57.51c-1.87,0-3.53.17-4.97.5-1.45.33-2.71.75-3.81,1.24-1.09.49-2,1.05-2.74,1.67-.73.62-1.37,1.27-1.9,1.94-1.2,1.56-1.96,3.32-2.27,5.27v8.01c.36,1.91,1.16,3.6,2.4,5.07.53.62,1.19,1.25,1.97,1.87.78.62,1.69,1.18,2.74,1.67,1.05.49,2.28.87,3.71,1.13,1.42.27,3.05.42,4.87.47,1.56,0,3.01-.22,4.37-.67,1.36-.44,2.54-1.1,3.54-1.97,1-.87,1.78-1.95,2.34-3.24.56-1.29.83-2.76.83-4.41v-7.88c0-1.56-.3-2.99-.9-4.31-.6-1.31-1.42-2.44-2.47-3.37-1.05-.94-2.23-1.67-3.54-2.2-1.31-.53-2.7-.8-4.17-.8Z"/>
    <path class="cls-4" d="M365.54,53.1h2.6c1.02,0,2.05.12,3.07.37,1.02.24,2.06.6,3.1,1.07,1.05.47,1.96,1.16,2.74,2.07.78.91,1.41,2.05,1.9,3.4.49,1.36.73,3.06.73,5.11v25.04h-5.54v-25.04c0-2.58-.53-4.45-1.6-5.61-1.07-1.16-2.69-1.85-4.87-2.07-.31,0-.63-.01-.97-.03-.33-.02-.68-.03-1.04-.03-2.49,0-4.6.28-6.31.83-1.71.56-3.15,1.26-4.31,2.1-1.16.85-2.06,1.76-2.7,2.74-.65.98-1.14,1.9-1.47,2.77-.33.87-.55,1.59-.63,2.17-.09.58-.13.89-.13.93v21.23h-5.54v-48.07h5.54l-.87,20.36.4,1.27c.13-1.2.53-2.41,1.2-3.64.67-1.22,1.65-2.33,2.94-3.31,1.29-.98,2.9-1.8,4.84-2.47,1.94-.67,4.24-1.07,6.91-1.2Z"/>
    <path class="cls-4" d="M410.53,54.17c2.14.71,3.96,1.74,5.47,3.07,1.51,1.34,2.67,2.96,3.47,4.87.8,1.91,1.2,4.07,1.2,6.48v4.34h-28.84v3.2c0,1.51.34,2.9,1.03,4.17.69,1.27,1.57,2.35,2.64,3.24,1.07.89,2.3,1.59,3.71,2.1,1.4.51,2.81.77,4.24.77,2.18,0,4.02-.27,5.51-.8,1.49-.53,2.7-1.26,3.64-2.17.94-.91,1.62-1.95,2.07-3.1.44-1.16.71-2.34.8-3.54h5.14c-.36,4.54-1.95,8.07-4.77,10.58-2.83,2.52-6.95,3.77-12.38,3.77-1.6,0-3.38-.26-5.34-.77-1.96-.51-3.81-1.36-5.54-2.54-1.74-1.18-3.19-2.71-4.37-4.61-1.18-1.89-1.77-4.26-1.77-7.11v-7.81c0-2.94.58-5.38,1.74-7.34,1.16-1.96,2.59-3.53,4.31-4.71,1.71-1.18,3.56-2,5.54-2.47,1.98-.47,3.79-.7,5.44-.7,2.58,0,4.94.36,7.08,1.07ZM391.84,68.59h23.77c0-1.34-.21-2.66-.63-3.97-.42-1.31-1.09-2.46-2-3.44-.91-.98-2.15-1.77-3.71-2.37-1.56-.6-3.49-.9-5.81-.9-1.51,0-2.96.24-4.34.73-1.38.49-2.6,1.16-3.67,2-1.07.85-1.94,1.87-2.6,3.07-.67,1.2-1,2.52-1,3.94v.93Z"/>
    <path class="cls-4" d="M434.8,59.31c.87-1.16,2.02-2.12,3.47-2.9,1.45-.78,3.19-1.36,5.24-1.74,2.05-.38,4.38-.57,7.01-.57h2.4v5.21h-2.2c-2.8,0-5.17.23-7.11.7-1.94.47-3.56,1.06-4.87,1.77-1.31.71-2.33,1.49-3.04,2.34-.71.85-1.25,1.64-1.6,2.37-.36.73-.57,1.36-.63,1.87-.07.51-.1.79-.1.83v20.96h-5.54v-36.05h5.54l-.6,8.35.4.67.07.13c.18-1.47.7-2.78,1.57-3.94Z"/>
    <path class="cls-4" d="M479.63,54.17c2.14.71,3.96,1.74,5.47,3.07,1.51,1.34,2.67,2.96,3.47,4.87.8,1.91,1.2,4.07,1.2,6.48v4.34h-28.84v3.2c0,1.51.34,2.9,1.03,4.17.69,1.27,1.57,2.35,2.64,3.24,1.07.89,2.3,1.59,3.71,2.1,1.4.51,2.81.77,4.24.77,2.18,0,4.02-.27,5.51-.8,1.49-.53,2.7-1.26,3.64-2.17.94-.91,1.62-1.95,2.07-3.1.44-1.16.71-2.34.8-3.54h5.14c-.36,4.54-1.95,8.07-4.77,10.58-2.83,2.52-6.95,3.77-12.38,3.77-1.6,0-3.38-.26-5.34-.77-1.96-.51-3.81-1.36-5.54-2.54-1.74-1.18-3.19-2.71-4.37-4.61-1.18-1.89-1.77-4.26-1.77-7.11v-7.81c0-2.94.58-5.38,1.74-7.34,1.16-1.96,2.59-3.53,4.31-4.71,1.71-1.18,3.56-2,5.54-2.47,1.98-.47,3.79-.7,5.44-.7,2.58,0,4.94.36,7.08,1.07ZM460.94,68.59h23.77c0-1.34-.21-2.66-.63-3.97-.42-1.31-1.09-2.46-2-3.44-.91-.98-2.15-1.77-3.71-2.37-1.56-.6-3.49-.9-5.81-.9-1.51,0-2.96.24-4.34.73-1.38.49-2.6,1.16-3.67,2-1.07.85-1.94,1.87-2.6,3.07-.67,1.2-1,2.52-1,3.94v.93Z"/>
  </g>
  <polygon class="cls-1" points="501.17 84.05 497.19 84.05 495.2 87.5 497.19 90.94 501.17 90.94 503.16 87.5 501.17 84.05"/>
</svg>